<svg width="24" height="24" viewBox="0 0 24 24" fill="none" xmlns="http://www.w3.org/2000/svg">
<g id="ri:line-fill">
<path id="Vector" d="M18.6649 10.8403C18.6646 10.9796 18.6091 11.1131 18.5105 11.2116C18.4119 11.31 18.2782 11.3653 18.1389 11.3653H16.6769V12.3033H18.1399C18.2107 12.3002 18.2814 12.3114 18.3477 12.3364C18.4141 12.3614 18.4747 12.3995 18.5259 12.4485C18.5771 12.4975 18.6178 12.5564 18.6456 12.6216C18.6735 12.6868 18.6878 12.7569 18.6878 12.8278C18.6878 12.8986 18.6735 12.9688 18.6456 13.034C18.6178 13.0991 18.5771 13.158 18.5259 13.207C18.4747 13.256 18.4141 13.2942 18.3477 13.3191C18.2814 13.3441 18.2107 13.3554 18.1399 13.3523H16.1509C16.0124 13.3512 15.88 13.2956 15.7823 13.1975C15.6845 13.0994 15.6294 12.9667 15.6289 12.8283V8.85227C15.6289 8.56527 15.8639 8.32727 16.1539 8.32727H18.1419C18.2755 8.33577 18.4009 8.39491 18.4924 8.49264C18.5839 8.59036 18.6348 8.71931 18.6345 8.85321C18.6342 8.9871 18.5829 9.11586 18.491 9.21323C18.3991 9.31061 18.2736 9.36927 18.1399 9.37727H16.6769V10.3153H18.1399C18.4299 10.3153 18.6649 10.5523 18.6649 10.8403ZM14.5659 13.3253C14.5124 13.3429 14.4563 13.3513 14.3999 13.3503C14.3177 13.3517 14.2363 13.3336 14.1624 13.2974C14.0885 13.2612 14.0242 13.2081 13.9749 13.1423L11.9389 10.3783V12.8283C11.9289 12.9603 11.8694 13.0836 11.7723 13.1736C11.6753 13.2636 11.5478 13.3136 11.4154 13.3136C11.283 13.3136 11.1555 13.2636 11.0585 13.1736C10.9614 13.0836 10.9019 12.9603 10.8919 12.8283V8.85227C10.8915 8.78373 10.9047 8.71579 10.9306 8.65235C10.9566 8.58891 10.9948 8.53123 11.0431 8.48263C11.0915 8.43402 11.1489 8.39545 11.2122 8.36913C11.2755 8.34281 11.3434 8.32927 11.4119 8.32927C11.5739 8.32927 11.7239 8.41527 11.8239 8.54027L13.8759 11.3153V8.85227C13.8759 8.56527 14.1109 8.32727 14.4009 8.32727C14.6879 8.32727 14.9259 8.56527 14.9259 8.85227V12.8283C14.9264 12.9386 14.8918 13.0462 14.827 13.1355C14.7623 13.2249 14.6709 13.2913 14.5659 13.3253ZM9.61591 13.3523C9.47727 13.3515 9.34455 13.296 9.24661 13.1979C9.14867 13.0997 9.09343 12.9669 9.09291 12.8283V8.85227C9.09291 8.56527 9.32791 8.32727 9.61791 8.32727C9.90691 8.32727 10.1419 8.56527 10.1419 8.85227V12.8283C10.1411 12.9673 10.0854 13.1005 9.98685 13.1986C9.88832 13.2968 9.75498 13.352 9.61591 13.3523ZM8.08591 13.3523H6.09991C5.96124 13.351 5.82861 13.2954 5.73046 13.1974C5.63232 13.0995 5.57647 12.9669 5.57491 12.8283V8.85227C5.57491 8.56527 5.81291 8.32727 6.09991 8.32727C6.38991 8.32727 6.62491 8.56527 6.62491 8.85227V12.3023H8.08891C8.22815 12.3023 8.36168 12.3576 8.46014 12.456C8.55859 12.5545 8.61391 12.688 8.61391 12.8273C8.61391 12.9665 8.55859 13.1 8.46014 13.1985C8.36168 13.297 8.22815 13.3523 8.08891 13.3523M12.0039 2.57227C6.49091 2.57227 2.00391 6.21527 2.00391 10.6903C2.00391 14.7003 5.56191 18.0593 10.3669 18.6973C10.6919 18.7653 11.1359 18.9123 11.2479 19.1893C11.3479 19.4393 11.3139 19.8273 11.2799 20.0893L11.1429 20.9393C11.1059 21.1893 10.9429 21.9273 12.0169 21.4763C13.0929 21.0273 17.7809 18.0783 19.8809 15.6643C21.3149 14.0893 22.0009 12.4773 22.0009 10.6903C22.0009 6.21527 17.5129 2.57227 12.0009 2.57227" fill="#724000"/>
</g>
</svg>
